<?xml version="1.0" encoding="UTF-8" standalone="no"?>
<svg
   xmlns:dc="http://purl.org/dc/elements/1.1/"
   xmlns:cc="http://creativecommons.org/ns#"
   xmlns:rdf="http://www.w3.org/1999/02/22-rdf-syntax-ns#"
   xmlns:svg="http://www.w3.org/2000/svg"
   xmlns="http://www.w3.org/2000/svg"
   xmlns:sodipodi="http://sodipodi.sourceforge.net/DTD/sodipodi-0.dtd"
   xmlns:inkscape="http://www.inkscape.org/namespaces/inkscape"
   version="1.1"
   id="Capa_1"
   x="0px"
   y="0px"
   viewBox="0 0 489 489"
   style="enable-background:new 0 0 489 489;"
   xml:space="preserve"
   sodipodi:docname="icon.svg"
   inkscape:version="1.0.2 (e86c870879, 2021-01-15)"><metadata
   id="metadata195"><rdf:RDF><cc:Work
       rdf:about=""><dc:format>image/svg+xml</dc:format><dc:type
         rdf:resource="http://purl.org/dc/dcmitype/StillImage" /></cc:Work></rdf:RDF></metadata><defs
   id="defs193" /><sodipodi:namedview
   pagecolor="#ffffff"
   bordercolor="#666666"
   borderopacity="1"
   objecttolerance="10"
   gridtolerance="10"
   guidetolerance="10"
   inkscape:pageopacity="0"
   inkscape:pageshadow="2"
   inkscape:window-width="1366"
   inkscape:window-height="718"
   id="namedview191"
   showgrid="false"
   inkscape:zoom="1.0654397"
   inkscape:cx="246.60557"
   inkscape:cy="245.1473"
   inkscape:window-x="0"
   inkscape:window-y="24"
   inkscape:window-maximized="1"
   inkscape:current-layer="Capa_1" />
<g
   id="g158"
   style="fill:#cca400;fill-opacity:1">
	<g
   id="g156"
   style="fill:#cca400;fill-opacity:1">
		<path
   d="M417.4,71.6C371.2,25.4,309.8,0,244.5,0S117.8,25.4,71.6,71.6S0,179.2,0,244.5s25.4,126.7,71.6,172.9S179.2,489,244.5,489    s126.7-25.4,172.9-71.6S489,309.8,489,244.5S463.6,117.8,417.4,71.6z M244.5,462C124.6,462,27,364.4,27,244.5S124.6,27,244.5,27    S462,124.6,462,244.5S364.4,462,244.5,462z"
   id="path150"
   style="fill:#cca400;fill-opacity:1" />
		<path
   d="M244.5,203.2c35.1,0,63.6-28.6,63.6-63.6s-28.5-63.7-63.6-63.7s-63.6,28.6-63.6,63.6S209.4,203.2,244.5,203.2z     M244.5,102.9c20.2,0,36.6,16.4,36.6,36.6s-16.4,36.6-36.6,36.6s-36.6-16.4-36.6-36.6S224.3,102.9,244.5,102.9z"
   id="path152"
   style="fill:#cca400;fill-opacity:1" />
		<path
   d="M340.9,280.5c-22.3-32.8-54.7-49.5-96.4-49.5s-74.1,16.6-96.4,49.5c-16.6,24.4-27.2,57.7-31.4,98.7    c-0.8,7.4,4.6,14.1,12,14.8c7.4,0.8,14.1-4.6,14.8-12c8.5-82.3,42.5-124,101-124s92.5,41.7,101,124c0.7,6.9,6.6,12.1,13.4,12.1    c0.5,0,0.9,0,1.4-0.1c7.4-0.8,12.8-7.4,12-14.8C368.1,338.1,357.5,304.9,340.9,280.5z"
   id="path154"
   style="fill:#cca400;fill-opacity:1" />
	</g>
</g>
<g
   id="g160">
</g>
<g
   id="g162">
</g>
<g
   id="g164">
</g>
<g
   id="g166">
</g>
<g
   id="g168">
</g>
<g
   id="g170">
</g>
<g
   id="g172">
</g>
<g
   id="g174">
</g>
<g
   id="g176">
</g>
<g
   id="g178">
</g>
<g
   id="g180">
</g>
<g
   id="g182">
</g>
<g
   id="g184">
</g>
<g
   id="g186">
</g>
<g
   id="g188">
</g>
</svg>
